<mxfile host="Electron" agent="Mozilla/5.0 (Windows NT 10.0; Win64; x64) AppleWebKit/537.36 (KHTML, like Gecko) draw.io/27.0.9 Chrome/134.0.6998.205 Electron/35.4.0 Safari/537.36" version="27.0.9">
  <diagram name="Page-1" id="b5b7bab2-c9e2-2cf4-8b2a-24fd1a2a6d21">
    <mxGraphModel dx="1884" dy="849" grid="1" gridSize="10" guides="1" tooltips="1" connect="1" arrows="1" fold="1" page="1" pageScale="1" pageWidth="827" pageHeight="1169" background="none" math="0" shadow="0">
      <root>
        <mxCell id="0" />
        <mxCell id="1" parent="0" />
        <mxCell id="L2ADHCGbDqvgz2DQ5tKt-9" style="edgeStyle=orthogonalEdgeStyle;rounded=0;orthogonalLoop=1;jettySize=auto;html=1;" parent="1" source="L2ADHCGbDqvgz2DQ5tKt-1" target="L2ADHCGbDqvgz2DQ5tKt-5" edge="1">
          <mxGeometry relative="1" as="geometry" />
        </mxCell>
        <mxCell id="L2ADHCGbDqvgz2DQ5tKt-23" style="rounded=0;orthogonalLoop=1;jettySize=auto;html=1;dashed=1;dashPattern=8 8;" parent="1" source="L2ADHCGbDqvgz2DQ5tKt-1" target="L2ADHCGbDqvgz2DQ5tKt-4" edge="1">
          <mxGeometry relative="1" as="geometry" />
        </mxCell>
        <mxCell id="L2ADHCGbDqvgz2DQ5tKt-1" value="Регистрация" style="shape=module;align=left;spacingLeft=20;align=center;verticalAlign=top;whiteSpace=wrap;html=1;" parent="1" vertex="1">
          <mxGeometry x="100" y="270" width="160" height="50" as="geometry" />
        </mxCell>
        <mxCell id="L2ADHCGbDqvgz2DQ5tKt-10" style="rounded=0;orthogonalLoop=1;jettySize=auto;html=1;" parent="1" source="L2ADHCGbDqvgz2DQ5tKt-5" target="L2ADHCGbDqvgz2DQ5tKt-7" edge="1">
          <mxGeometry relative="1" as="geometry">
            <mxPoint x="371.304347826087" y="320" as="sourcePoint" />
          </mxGeometry>
        </mxCell>
        <mxCell id="L2ADHCGbDqvgz2DQ5tKt-4" value="База данных" style="shape=module;align=left;spacingLeft=20;align=center;verticalAlign=top;whiteSpace=wrap;html=1;" parent="1" vertex="1">
          <mxGeometry x="190" y="180" width="160" height="50" as="geometry" />
        </mxCell>
        <mxCell id="L2ADHCGbDqvgz2DQ5tKt-5" value="" style="ellipse;whiteSpace=wrap;html=1;aspect=fixed;" parent="1" vertex="1">
          <mxGeometry x="160" y="360" width="40" height="40" as="geometry" />
        </mxCell>
        <mxCell id="L2ADHCGbDqvgz2DQ5tKt-6" value="API регистрации" style="text;html=1;align=center;verticalAlign=middle;whiteSpace=wrap;rounded=0;" parent="1" vertex="1">
          <mxGeometry x="60" y="355" width="80" height="30" as="geometry" />
        </mxCell>
        <mxCell id="L2ADHCGbDqvgz2DQ5tKt-17" style="rounded=0;orthogonalLoop=1;jettySize=auto;html=1;dashed=1;dashPattern=8 8;" parent="1" source="L2ADHCGbDqvgz2DQ5tKt-7" target="L2ADHCGbDqvgz2DQ5tKt-11" edge="1">
          <mxGeometry relative="1" as="geometry" />
        </mxCell>
        <mxCell id="L2ADHCGbDqvgz2DQ5tKt-7" value="" style="ellipse;whiteSpace=wrap;html=1;aspect=fixed;" parent="1" vertex="1">
          <mxGeometry x="360" y="360" width="40" height="40" as="geometry" />
        </mxCell>
        <mxCell id="L2ADHCGbDqvgz2DQ5tKt-8" value="Ввод данных для регистрации" style="text;html=1;align=center;verticalAlign=middle;whiteSpace=wrap;rounded=0;" parent="1" vertex="1">
          <mxGeometry x="220" y="340" width="120" height="30" as="geometry" />
        </mxCell>
        <mxCell id="L2ADHCGbDqvgz2DQ5tKt-11" value="Пользователь" style="shape=umlActor;verticalLabelPosition=bottom;verticalAlign=top;html=1;" parent="1" vertex="1">
          <mxGeometry x="365" y="460" width="30" height="60" as="geometry" />
        </mxCell>
      </root>
    </mxGraphModel>
  </diagram>
</mxfile>
